# xmcd
#
# Track frame offsets: 
#        150
#        11560
#        27000
#        51582
#        64925
#        77357
#        91285
#        106750
#        125430
#        136405
#
# Disc length: 2049 seconds
#
# Revision: 3
# Processed by: cddbd v1.5.2PL0 Copyright (c) Steve Scherf et al.
# Submitted via: ExactAudioCopyFreeDBPlugin 1.0
#
DISCID=7907ff0a
DTITLE=Greater Vision - When I See The Cross
DYEAR=1997
DGENRE=Southern Gospel
TTITLE0=Just How Precious
TTITLE1=I Have A Hope
TTITLE2=Common Garments
TTITLE3=God's Grace Is Sufficent
TTITLE4=All The Way
TTITLE5=He'd Sill Been God
TTITLE6=The Glory Way
TTITLE7=When I See The Cross
TTITLE8=The Walls Come Down
TTITLE9='Til The Storm Passes By
EXTD=YEAR: 1997
EXTT0=
EXTT1=
EXTT2=
EXTT3=
EXTT4=
EXTT5=
EXTT6=
EXTT7=
EXTT8=
EXTT9=
PLAYORDER=
